<svg width="32" height="32" viewBox="0 0 32 32" fill="none" xmlns="http://www.w3.org/2000/svg">
<path d="M13.104 13.4241C12.192 13.4241 11.472 14.2241 11.472 15.2001C11.472 16.1761 12.208 16.9761 13.104 16.9761C14.016 16.9761 14.736 16.1761 14.736 15.2001C14.752 14.2241 14.016 13.4241 13.104 13.4241ZM18.944 13.4241C18.032 13.4241 17.312 14.2241 17.312 15.2001C17.312 16.1761 18.048 16.9761 18.944 16.9761C19.856 16.9761 20.576 16.1761 20.576 15.2001C20.576 14.2241 19.856 13.4241 18.944 13.4241Z" fill="white"/>
<path d="M26.72 0H5.28C3.472 0 2 1.472 2 3.296V24.928C2 26.752 3.472 28.224 5.28 28.224H23.424L22.576 25.264L24.624 27.168L26.56 28.96L30 32V3.296C30 1.472 28.528 0 26.72 0ZM20.544 20.896C20.544 20.896 19.968 20.208 19.488 19.6C21.584 19.008 22.384 17.696 22.384 17.696C21.728 18.128 21.104 18.432 20.544 18.64C19.744 18.976 18.976 19.2 18.224 19.328C16.8537 19.5803 15.4483 19.5749 14.08 19.312C13.2767 19.1548 12.4894 18.9245 11.728 18.624C11.3267 18.4697 10.9364 18.2879 10.56 18.08C10.512 18.048 10.464 18.032 10.416 18C10.384 17.984 10.368 17.968 10.352 17.952C10.064 17.792 9.904 17.68 9.904 17.68C9.904 17.68 10.672 18.96 12.704 19.568C12.224 20.176 11.632 20.896 11.632 20.896C8.096 20.784 6.752 18.464 6.752 18.464C6.752 13.312 9.056 9.136 9.056 9.136C11.36 7.408 13.552 7.456 13.552 7.456L13.712 7.648C10.832 8.48 9.504 9.744 9.504 9.744C9.504 9.744 9.856 9.552 10.448 9.28C12.16 8.528 13.52 8.32 14.08 8.272C14.176 8.256 14.256 8.24 14.352 8.24C17.1266 7.86446 19.9483 8.39179 22.4 9.744C22.4 9.744 21.136 8.544 18.416 7.712L18.64 7.456C18.64 7.456 20.832 7.408 23.136 9.136C23.136 9.136 25.44 13.312 25.44 18.464C25.44 18.464 24.08 20.784 20.544 20.896Z" fill="white"/>
</svg>
