<svg width="249" height="19" viewBox="0 0 249 19" fill="none" xmlns="http://www.w3.org/2000/svg">
<path fill-rule="evenodd" clip-rule="evenodd" d="M119.515 14.8841C120.333 14.4349 121.09 13.8821 121.768 13.2395L123.721 15.2191C123.29 15.6828 122.822 16.1098 122.321 16.4954C121.83 16.8678 121.304 17.1903 120.749 17.4582C120.163 17.7394 119.544 17.948 118.907 18.0795C118.179 18.2239 117.438 18.2935 116.696 18.2871C115.49 18.2991 114.293 18.063 113.182 17.5934C112.134 17.1523 111.184 16.5073 110.387 15.6961C109.59 14.885 108.962 13.9237 108.539 12.868C108.086 11.7616 107.857 10.5762 107.867 9.38062V9.33108C107.856 8.14144 108.08 6.96136 108.525 5.85815C108.953 4.79263 109.587 3.82213 110.391 3.00242C111.194 2.18269 112.152 1.52992 113.209 1.08159C114.352 0.600691 115.581 0.360831 116.821 0.376986C117.545 0.37237 118.269 0.438754 118.981 0.575184C119.598 0.696414 120.2 0.88329 120.777 1.13262C121.307 1.36485 121.811 1.65023 122.283 1.98437C122.746 2.31583 123.185 2.68014 123.596 3.07447L121.643 5.32252C120.983 4.70618 120.243 4.18243 119.442 3.76568C118.619 3.35825 117.711 3.15434 116.793 3.17109C116.005 3.16349 115.225 3.32873 114.508 3.65518C113.821 3.9669 113.203 4.41147 112.689 4.96329C112.17 5.52813 111.766 6.18829 111.499 6.90712C111.216 7.66559 111.074 8.46946 111.08 9.27905V9.3286C111.074 10.1429 111.216 10.9515 111.499 11.7149C111.765 12.4411 112.169 13.1089 112.689 13.6815C113.198 14.2431 113.818 14.6944 114.508 15.008C115.226 15.3307 116.006 15.4942 116.793 15.4871C117.736 15.5139 118.671 15.3068 119.515 14.8841ZM59.6085 14.8841C60.4272 14.4359 61.1842 13.8831 61.8605 13.2395L63.8133 15.2191C63.3834 15.6831 62.9151 16.1101 62.4135 16.4954C61.9234 16.8679 61.3972 17.1904 60.8428 17.4582C60.256 17.7394 59.6373 17.948 59 18.0795C58.2721 18.2239 57.5312 18.2935 56.7892 18.2871C55.5824 18.2991 54.3862 18.063 53.2746 17.5934C52.2277 17.1502 51.2787 16.5046 50.482 15.6936C49.6853 14.8827 49.0565 13.9225 48.6318 12.868C48.1785 11.7616 47.9499 10.5762 47.9595 9.38063V9.33108C47.9491 8.14142 48.1731 6.96136 48.6185 5.85815C49.0461 4.79272 49.68 3.82227 50.4838 3.00255C51.2876 2.18284 52.2454 1.53001 53.3023 1.08159C54.4447 0.600704 55.6741 0.360831 56.9135 0.376998C57.6399 0.372588 58.3652 0.43896 59.0788 0.575196C59.6939 0.697054 60.2943 0.883907 60.87 1.13262C61.3997 1.36463 61.9044 1.65002 62.3764 1.98438C62.8395 2.31585 63.2784 2.68015 63.6894 3.07447L61.7361 5.32252C61.0762 4.70595 60.3355 4.18217 59.5342 3.76568C58.7119 3.35826 57.8038 3.15435 56.8862 3.17109C56.0984 3.16345 55.3185 3.3287 54.6015 3.65519C53.9145 3.96666 53.2961 4.41127 52.7821 4.96329C52.2633 5.528 51.8595 6.1882 51.5928 6.90712C51.3095 7.66555 51.1674 8.46945 51.1737 9.27905V9.3286C51.1675 10.1429 51.3095 10.9515 51.5928 11.7149C51.8583 12.4412 52.2621 13.1091 52.7821 13.6815C53.2915 14.2434 53.9107 14.6948 54.6015 15.008C55.3195 15.3309 56.099 15.4942 56.8862 15.4871C57.8295 15.5138 58.7647 15.3067 59.6085 14.8841ZM3.36289 10.6139V15.2433H13.2783V17.9884H0.345825V0.67377H13.1554V3.41931H3.36289V7.86885H12.0454V10.6139H3.36289ZM19.9084 0.675752V15.2433H29.0096V17.9884H16.8912V0.675752H19.9084ZM35.1961 15.2433V10.6139H43.8786V7.86885H35.1961V3.41931H44.9886V0.67377H32.177V17.9884H45.1094V15.2433H35.1961ZM65.7162 0.67377V3.49314H71.2068V17.9884H74.2744V3.49314H79.765V0.67377H65.7162ZM94.6459 10.7294C94.1237 11.0398 93.5611 11.2769 92.9741 11.4339L97.6525 17.9884H94.0642L89.7931 11.9503L87.9786 9.25574H90.4382C91.3704 9.30676 92.2911 9.02978 93.0405 8.47286C93.3583 8.22042 93.6119 7.89647 93.7807 7.52743C93.9497 7.15839 94.0289 6.75467 94.0121 6.34917V6.29962C94.0378 5.89269 93.9657 5.48555 93.8019 5.11215C93.6382 4.73874 93.3874 4.40993 93.0707 4.15314C92.2907 3.62078 91.3556 3.36313 90.4129 3.42079H85.9723V17.9884H82.9556V0.674761H90.6755C91.659 0.658098 92.6377 0.812508 93.5682 1.13111C94.352 1.40035 95.0684 1.83556 95.6686 2.40701C96.1322 2.87986 96.4942 3.44256 96.7324 4.06048C96.9875 4.7243 97.114 5.4305 97.1055 6.14156V6.18764C97.1136 6.83917 97.0091 7.48719 96.7969 8.10322C96.6018 8.65315 96.3118 9.16463 95.9401 9.61448C95.574 10.0558 95.1366 10.4326 94.6459 10.7294ZM100.989 0.67377V17.9884H104.007V0.67377H100.989Z" fill="white"/>
<path fill-rule="evenodd" clip-rule="evenodd" d="M154.291 13.2392C153.614 13.8826 152.858 14.4355 152.039 14.8838C151.197 15.3069 150.263 15.5141 149.321 15.4868C148.532 15.4939 147.752 15.3305 147.032 15.0077C146.342 14.6936 145.723 14.2423 145.213 13.6812C144.692 13.1089 144.289 12.441 144.023 11.7146C143.743 10.9505 143.601 10.1424 143.605 9.32831V9.27876C143.601 8.46939 143.743 7.66596 144.023 6.90683C144.29 6.18784 144.694 5.52761 145.213 4.963C145.728 4.41174 146.345 3.96725 147.032 3.6549C147.751 3.32838 148.532 3.16316 149.321 3.1708C150.237 3.15468 151.143 3.35858 151.965 3.76539C152.767 4.18104 153.508 4.70489 154.167 5.32223L156.119 3.07418C155.71 2.67991 155.273 2.31561 154.812 1.98408C154.338 1.64983 153.832 1.36445 153.3 1.13234C152.725 0.883617 152.125 0.696765 151.508 0.574907C150.795 0.438477 150.07 0.372093 149.344 0.376709C148.105 0.360916 146.876 0.600765 145.733 1.0813C144.675 1.52963 143.718 2.18241 142.914 3.00213C142.11 3.82186 141.476 4.79236 141.048 5.85786C140.607 6.96101 140.383 8.13956 140.392 9.32782V9.37737C140.385 10.5726 140.614 11.7577 141.065 12.8647C141.495 13.9199 142.125 14.8818 142.921 15.6969C143.718 16.5051 144.667 17.1485 145.712 17.5902C146.823 18.0602 148.018 18.2964 149.222 18.2839C149.965 18.2905 150.708 18.2209 151.437 18.0762C152.073 17.9434 152.69 17.7345 153.275 17.4539C153.828 17.1841 154.355 16.8618 154.846 16.4912C155.346 16.1056 155.814 15.6786 156.243 15.2148L154.291 13.2392ZM168.339 0.549436H165.519L157.903 17.9884H161.021L162.799 13.8064L163.913 11.1114L166.879 4.18389L169.875 11.1119L170.99 13.8069L172.744 17.9889H175.96L168.339 0.549436ZM190.542 2.2538C191.106 2.76234 191.552 3.38805 191.85 4.08714C192.165 4.83807 192.321 5.64619 192.309 6.46056V6.51011C192.327 7.39488 192.14 8.27182 191.761 9.07132C191.409 9.78925 190.902 10.4189 190.273 10.9136C189.616 11.4238 188.867 11.8051 188.067 12.0373C187.191 12.2988 186.279 12.4278 185.364 12.4199H181.918V17.9883H178.901V0.673674H185.728C186.656 0.661144 187.579 0.797997 188.463 1.07899C189.229 1.32518 189.936 1.72494 190.542 2.2538ZM188.968 7.80417C189.142 7.41659 189.227 6.99471 189.215 6.57006L189.212 6.52398C189.243 6.08356 189.166 5.64237 188.989 5.23805C188.811 4.83374 188.539 4.4783 188.195 4.2021C187.4 3.64275 186.441 3.367 185.469 3.41921H181.918V9.67384H185.469C186.459 9.73086 187.434 9.42283 188.211 8.80821C188.536 8.53499 188.794 8.19174 188.968 7.80417ZM195.572 0.673674V17.9883H198.594V0.673674H195.572ZM201.978 3.49304V0.673674H216.027V3.49304H210.537V17.9883H207.469V3.49304H201.978ZM225.824 0.549436H223.005L215.387 17.9884H218.499L220.284 13.8064L221.398 11.1114L224.364 4.18389L227.357 11.1119L228.468 13.8069L230.227 17.9889H233.442L225.824 0.549436ZM239.527 0.675656V15.2432H248.628V17.9883H236.51V0.675656H239.527Z" fill="white"/>
<path d="M134.684 8.33074H131.485V0.376221L128.287 10.3331H131.485V18.2876L134.684 8.33074Z" fill="#00BBF2"/>
</svg>
