<svg width="140" height="35" viewBox="0 0 140 35" fill="none" xmlns="http://www.w3.org/2000/svg">
<path fill-rule="evenodd" clip-rule="evenodd" d="M89.5046 24.525C85.4047 24.525 82.0874 21.0587 82.0874 16.7724C82.0874 12.4861 85.4047 8.98246 89.5046 8.98246C93.6046 8.98246 96.9218 12.4861 96.9218 16.7351C96.9218 20.9841 93.6046 24.525 89.5046 24.525ZM89.5046 6.67158C84.1374 6.67158 79.7766 11.1815 79.7766 16.7351C79.7766 22.2887 84.1374 26.7986 89.5046 26.7986C94.8718 26.7986 99.2327 22.2887 99.2327 16.7351C99.2327 11.1815 94.8718 6.67158 89.5046 6.67158ZM69.4521 7.23066H71.9121L62.7804 30.7868C61.8858 33.0976 59.6495 34.6258 57.1523 34.6258H55.8477V32.3149H57.1523C58.6804 32.3149 60.0595 31.3831 60.6186 29.9295L62.0349 26.3141L54.6177 7.23066H57.0777L63.2649 23.1087L69.4521 7.23066ZM139.04 26.2395H135.909L127.597 17.0706L126.74 17.8905V26.2395H124.429V0.0371094H126.74V15.0578L135.2 7.26793H138.22L129.311 15.4678L139.04 26.2395ZM104.339 16.7351C104.339 21.0214 107.656 24.4877 111.756 24.4877C114.775 24.4505 117.459 22.5868 118.577 19.7914H121.037C119.807 23.9286 116.08 26.7613 111.756 26.7986C106.389 26.7986 102.028 22.2887 102.028 16.7351C102.028 11.1815 106.389 6.67158 111.756 6.67158C116.08 6.74612 119.882 9.61609 121.037 13.7906H118.577C117.496 10.9206 114.775 9.01973 111.719 8.98246C107.656 8.98246 104.339 12.4488 104.339 16.7351ZM74.1484 26.2395H76.4593V0.0371094H74.1484V26.2395ZM10.4873 24.525C6.38739 24.525 3.07016 21.0587 3.07016 16.7724C3.07016 12.4861 6.38739 8.98246 10.4873 8.98246C14.5873 8.98246 17.9045 12.4861 17.9045 16.7351C17.9045 20.9841 14.5873 24.525 10.4873 24.525ZM17.9045 10.2497C16.0782 8.01338 13.3573 6.70885 10.4873 6.67158C5.12014 6.67158 0.759277 11.1815 0.759277 16.7351C0.759277 22.2887 5.12014 26.7986 10.4873 26.7986C13.3573 26.7986 16.0782 25.4941 17.9045 23.2578V24.115C17.9418 28.3641 14.5128 31.8304 10.2637 31.8677C8.02738 31.8677 5.90285 30.8613 4.48651 29.184H1.69108C3.44288 32.2776 6.72284 34.1785 10.301 34.1785C15.8546 34.1413 20.29 29.6313 20.2527 24.0777V7.23066H17.9418V10.2497H17.9045ZM27.1108 9.76518C28.6762 8.08792 30.8753 7.11884 33.1862 7.11884V9.42973C29.7944 9.42973 27.0735 12.1879 27.0735 15.5797V26.2768H24.7626V7.26793H27.0735L27.1108 9.76518ZM43.5106 8.98246C47.2378 8.98246 50.4433 11.5915 51.1142 15.2442H35.8698C36.6152 11.6288 39.7834 8.98246 43.5106 8.98246ZM53.6114 17.5551L53.5741 16.3624C53.3878 10.8088 48.7287 6.44794 43.1752 6.63431C37.7334 6.82067 33.4098 11.2933 33.4471 16.7351C33.5216 22.3632 38.1061 26.8359 43.697 26.7986C47.8342 26.7986 51.5614 24.3386 53.2014 20.5369H50.6296C49.176 22.9968 46.5297 24.4877 43.697 24.4877C39.6716 24.525 36.2425 21.5432 35.758 17.5551H53.6114Z" fill="white"/>
</svg>
