<svg width="169" height="26" viewBox="0 0 169 26" fill="none" xmlns="http://www.w3.org/2000/svg">
<path d="M0 1.59444H8.56354C9.74712 1.59444 10.8843 1.70516 11.975 1.92661C13.089 2.12592 14.0753 2.48024 14.934 2.98957C15.7926 3.49891 16.4773 4.1854 16.9878 5.04905C17.4984 5.91271 17.7537 7.00888 17.7537 8.33758C17.7537 10.0427 17.2547 11.4711 16.2568 12.6226C15.2821 13.7742 13.878 14.4717 12.0447 14.7153L18.5891 25.1124H13.2979L7.58883 15.1472H4.3862V25.1124H0V1.59444ZM7.79769 11.5597C8.42429 11.5597 9.05089 11.5375 9.67749 11.4932C10.3041 11.4268 10.8727 11.2939 11.3832 11.0946C11.917 10.8732 12.3463 10.5521 12.6712 10.1313C12.9962 9.68842 13.1586 9.07944 13.1586 8.30436C13.1586 7.61787 13.0078 7.06424 12.7061 6.64349C12.4044 6.22273 12.0098 5.9127 11.5225 5.7134C11.0351 5.49195 10.4898 5.34801 9.88636 5.28157C9.30617 5.21514 8.73759 5.18192 8.18061 5.18192H4.3862V11.5597H7.79769Z" fill="white"/>
<path d="M31.2621 22.92H31.1577C30.5543 23.828 29.7884 24.4923 28.8601 24.9131C27.9318 25.3117 26.9107 25.511 25.7968 25.511C25.0309 25.511 24.2767 25.4113 23.534 25.212C22.8146 25.0127 22.1648 24.7138 21.5846 24.3152C21.0276 23.9166 20.5751 23.4183 20.227 22.8204C19.8789 22.2225 19.7048 21.5249 19.7048 20.7277C19.7048 19.864 19.8673 19.1332 20.1922 18.5353C20.5171 17.9153 20.9464 17.4059 21.4802 17.0073C22.0372 16.5866 22.6754 16.2544 23.3948 16.0108C24.1142 15.7672 24.8569 15.5901 25.6227 15.4793C26.4118 15.3465 27.2008 15.269 27.9899 15.2468C28.7789 15.2025 29.5216 15.1804 30.2178 15.1804H31.2621V14.7485C31.2621 13.752 30.9024 13.0102 30.183 12.523C29.4635 12.0136 28.5468 11.759 27.4329 11.759C26.551 11.759 25.7271 11.914 24.9613 12.224C24.1955 12.5119 23.534 12.9105 22.9771 13.4198L20.784 11.3271C21.7123 10.4192 22.7914 9.76593 24.0214 9.36732C25.2746 8.96871 26.5626 8.76941 27.8854 8.76941C29.069 8.76941 30.0669 8.90228 30.8792 9.16802C31.6915 9.41161 32.3645 9.73271 32.8982 10.1313C33.432 10.5299 33.8381 10.995 34.1166 11.5265C34.4183 12.0358 34.6272 12.5562 34.7432 13.0877C34.8825 13.6192 34.9637 14.1396 34.9869 14.6489C35.0101 15.1361 35.0217 15.5679 35.0217 15.9444V25.1124H31.2621V22.92ZM31.0184 17.9706H30.1482C29.568 17.9706 28.9182 17.9928 28.1987 18.0371C27.4793 18.0814 26.7947 18.1921 26.1449 18.3692C25.5183 18.5243 24.9845 18.7679 24.5436 19.1C24.1026 19.4101 23.8822 19.853 23.8822 20.4287C23.8822 20.8052 23.9634 21.1263 24.1258 21.392C24.3115 21.6356 24.5436 21.846 24.8221 22.0232C25.1005 22.2003 25.4138 22.3332 25.762 22.4218C26.1101 22.4882 26.4582 22.5214 26.8063 22.5214C28.2451 22.5214 29.3011 22.2003 29.9741 21.5581C30.6703 20.8938 31.0184 19.9969 31.0184 18.8675V17.9706Z" fill="white"/>
<path d="M37.3405 0H41.5178V11.1943H41.6222C41.8311 10.9285 42.098 10.6628 42.4229 10.3971C42.7478 10.1092 43.1423 9.84344 43.6065 9.59984C44.0706 9.35625 44.6044 9.15694 45.2078 9.00193C45.8112 8.84691 46.5074 8.76941 47.2964 8.76941C48.48 8.76941 49.5708 8.99086 50.5687 9.43375C51.5666 9.85451 52.4137 10.4414 53.1099 11.1943C53.8293 11.9472 54.3863 12.833 54.7808 13.8517C55.1754 14.8703 55.3726 15.9665 55.3726 17.1402C55.3726 18.3139 55.187 19.4101 54.8156 20.4287C54.4443 21.4474 53.899 22.3332 53.1795 23.0861C52.4601 23.8391 51.5898 24.437 50.5687 24.8799C49.5476 25.3006 48.3988 25.511 47.1224 25.511C45.9388 25.511 44.8365 25.2895 43.8153 24.8466C42.7942 24.4038 41.9819 23.6951 41.3786 22.7207H41.3089V25.1124H37.3405V0ZM51.1953 17.1402C51.1953 16.5201 51.0793 15.9222 50.8472 15.3465C50.6383 14.7707 50.3134 14.2614 49.8725 13.8185C49.4547 13.3756 48.9442 13.0212 48.3408 12.7555C47.7374 12.4898 47.0528 12.3569 46.2869 12.3569C45.5211 12.3569 44.8365 12.4898 44.2331 12.7555C43.6297 13.0212 43.1075 13.3756 42.6666 13.8185C42.2488 14.2614 41.9239 14.7707 41.6919 15.3465C41.483 15.9222 41.3786 16.5201 41.3786 17.1402C41.3786 17.7603 41.483 18.3582 41.6919 18.9339C41.9239 19.5097 42.2488 20.019 42.6666 20.4619C43.1075 20.9048 43.6297 21.2592 44.2331 21.5249C44.8365 21.7906 45.5211 21.9235 46.2869 21.9235C47.0528 21.9235 47.7374 21.7906 48.3408 21.5249C48.9442 21.2592 49.4547 20.9048 49.8725 20.4619C50.3134 20.019 50.6383 19.5097 50.8472 18.9339C51.0793 18.3582 51.1953 17.7603 51.1953 17.1402Z" fill="white"/>
<path d="M57.8169 0H61.9943V11.1943H62.0987C62.3076 10.9285 62.5744 10.6628 62.8994 10.3971C63.2243 10.1092 63.6188 9.84344 64.0829 9.59984C64.5471 9.35625 65.0808 9.15694 65.6842 9.00193C66.2876 8.84691 66.9839 8.76941 67.7729 8.76941C68.9565 8.76941 70.0472 8.99086 71.0452 9.43375C72.0431 9.85451 72.8901 10.4414 73.5864 11.1943C74.3058 11.9472 74.8628 12.833 75.2573 13.8517C75.6518 14.8703 75.8491 15.9665 75.8491 17.1402C75.8491 18.3139 75.6634 19.4101 75.2921 20.4287C74.9208 21.4474 74.3754 22.3332 73.656 23.0861C72.9366 23.8391 72.0663 24.437 71.0452 24.8799C70.024 25.3006 68.8753 25.511 67.5989 25.511C66.4153 25.511 65.3129 25.2895 64.2918 24.8466C63.2707 24.4038 62.4584 23.6951 61.855 22.7207H61.7854V25.1124H57.8169V0ZM71.6718 17.1402C71.6718 16.5201 71.5557 15.9222 71.3236 15.3465C71.1148 14.7707 70.7899 14.2614 70.3489 13.8185C69.9312 13.3756 69.4206 13.0212 68.8172 12.7555C68.2139 12.4898 67.5292 12.3569 66.7634 12.3569C65.9975 12.3569 65.3129 12.4898 64.7095 12.7555C64.1061 13.0212 63.584 13.3756 63.143 13.8185C62.7253 14.2614 62.4004 14.7707 62.1683 15.3465C61.9594 15.9222 61.855 16.5201 61.855 17.1402C61.855 17.7603 61.9594 18.3582 62.1683 18.9339C62.4004 19.5097 62.7253 20.019 63.143 20.4619C63.584 20.9048 64.1061 21.2592 64.7095 21.5249C65.3129 21.7906 65.9975 21.9235 66.7634 21.9235C67.5292 21.9235 68.2139 21.7906 68.8172 21.5249C69.4206 21.2592 69.9312 20.9048 70.3489 20.4619C70.7899 20.019 71.1148 19.5097 71.3236 18.9339C71.5557 18.3582 71.6718 17.7603 71.6718 17.1402Z" fill="white"/>
<path d="M77.6378 9.16802H81.8151V25.1124H77.6378V9.16802ZM77.046 3.75357C77.046 3.11137 77.2897 2.55774 77.777 2.0927C78.2876 1.60551 78.9258 1.36192 79.6916 1.36192C80.4575 1.36192 81.0957 1.59444 81.6063 2.05948C82.14 2.50238 82.4069 3.06708 82.4069 3.75357C82.4069 4.44007 82.14 5.01583 81.6063 5.48088C81.0957 5.92378 80.4575 6.14523 79.6916 6.14523C78.9258 6.14523 78.2876 5.91271 77.777 5.44766C77.2897 4.96047 77.046 4.39578 77.046 3.75357Z" fill="white"/>
<path d="M83.9362 12.5562V9.16802H87.3825V4.55079H91.5599V9.16802H96.1549V12.5562H91.5599V19.5319C91.5599 20.3291 91.7107 20.9602 92.0124 21.4253C92.3373 21.8903 92.9639 22.1228 93.8922 22.1228C94.2635 22.1228 94.6697 22.0896 95.1106 22.0232C95.5515 21.9346 95.8997 21.8017 96.1549 21.6246V24.9795C95.714 25.1788 95.1686 25.3117 94.5188 25.3781C93.8922 25.4667 93.3352 25.511 92.8479 25.511C91.7339 25.511 90.8172 25.3892 90.0978 25.1456C89.4016 24.9242 88.8446 24.5809 88.4269 24.1159C88.0323 23.6287 87.7539 23.0308 87.5914 22.3221C87.4522 21.6135 87.3825 20.7941 87.3825 19.864V12.5562H83.9362Z" fill="white"/>
<path d="M101.983 2.05779H106.365V11.4251H117.877V2.05779H122.259V25.5757H117.877V15.2119H106.365V25.5757H101.983V2.05779Z" fill="#8DFBC9"/>
<path d="M124.733 17.6035C124.733 16.3413 124.965 15.2008 125.429 14.1822C125.916 13.1413 126.565 12.2555 127.376 11.5248C128.188 10.794 129.15 10.2293 130.263 9.83067C131.376 9.43206 132.559 9.23275 133.811 9.23275C135.063 9.23275 136.245 9.43206 137.358 9.83067C138.471 10.2293 139.433 10.794 140.245 11.5248C141.056 12.2555 141.694 13.1413 142.158 14.1822C142.645 15.2008 142.888 16.3413 142.888 17.6035C142.888 18.8658 142.645 20.0174 142.158 21.0582C141.694 22.0768 141.056 22.9516 140.245 23.6823C139.433 24.4131 138.471 24.9778 137.358 25.3764C136.245 25.775 135.063 25.9743 133.811 25.9743C132.559 25.9743 131.376 25.775 130.263 25.3764C129.15 24.9778 128.188 24.4131 127.376 23.6823C126.565 22.9516 125.916 22.0768 125.429 21.0582C124.965 20.0174 124.733 18.8658 124.733 17.6035ZM128.907 17.6035C128.907 18.2236 129.011 18.8215 129.22 19.3973C129.452 19.9731 129.776 20.4824 130.194 20.9253C130.634 21.3682 131.156 21.7225 131.759 21.9883C132.361 22.254 133.045 22.3869 133.811 22.3869C134.576 22.3869 135.26 22.254 135.863 21.9883C136.465 21.7225 136.976 21.3682 137.393 20.9253C137.833 20.4824 138.158 19.9731 138.367 19.3973C138.599 18.8215 138.715 18.2236 138.715 17.6035C138.715 16.9835 138.599 16.3856 138.367 15.8098C138.158 15.234 137.833 14.7247 137.393 14.2818C136.976 13.8389 136.465 13.4846 135.863 13.2188C135.26 12.9531 134.576 12.8202 133.811 12.8202C133.045 12.8202 132.361 12.9531 131.759 13.2188C131.156 13.4846 130.634 13.8389 130.194 14.2818C129.776 14.7247 129.452 15.234 129.22 15.8098C129.011 16.3856 128.907 16.9835 128.907 17.6035Z" fill="#8DFBC9"/>
<path d="M145.054 0.463348H149.227V25.5757H145.054V0.463348Z" fill="#8DFBC9"/>
<path d="M156.271 18.9987C156.41 20.1945 156.897 21.1246 157.731 21.7889C158.566 22.4533 159.575 22.7855 160.757 22.7855C161.801 22.7855 162.67 22.5862 163.366 22.1876C164.084 21.7668 164.711 21.2464 165.244 20.6263L168.235 22.7855C167.261 23.937 166.171 24.7564 164.966 25.2436C163.76 25.7308 162.496 25.9743 161.175 25.9743C159.923 25.9743 158.74 25.775 157.627 25.3764C156.514 24.9778 155.552 24.4131 154.74 23.6823C153.929 22.9516 153.28 22.0768 152.793 21.0582C152.329 20.0174 152.097 18.8658 152.097 17.6035C152.097 16.3413 152.329 15.2008 152.793 14.1822C153.28 13.1413 153.929 12.2555 154.74 11.5248C155.552 10.794 156.514 10.2293 157.627 9.83067C158.74 9.43206 159.923 9.23275 161.175 9.23275C162.334 9.23275 163.389 9.43206 164.34 9.83067C165.313 10.2071 166.136 10.7608 166.809 11.4915C167.504 12.2223 168.038 13.1303 168.409 14.2154C168.803 15.2783 169 16.5074 169 17.9025V18.9987H156.271ZM164.826 16.0091C164.803 14.8354 164.421 13.9164 163.679 13.2521C162.937 12.5656 161.905 12.2223 160.583 12.2223C159.331 12.2223 158.334 12.5656 157.592 13.2521C156.874 13.9386 156.433 14.8576 156.271 16.0091H164.826Z" fill="#8DFBC9"/>
</svg>
